<svg width="52" height="52" viewBox="0 0 52 52" fill="none" xmlns="http://www.w3.org/2000/svg">
<g filter="url(#filter0_d_17_98)">
<path d="M26 41C34.2843 41 41 34.2843 41 26C41 17.7157 34.2843 11 26 11C17.7157 11 11 17.7157 11 26C11 34.2843 17.7157 41 26 41Z" fill="#D50F27"/>
<path d="M26 41C34.2843 41 41 34.2843 41 26C41 17.7157 34.2843 11 26 11C17.7157 11 11 17.7157 11 26C11 34.2843 17.7157 41 26 41Z" stroke="#950C1C" stroke-width="1.5" stroke-miterlimit="10"/>
</g>
<path d="M33 19L19 33" stroke="white" stroke-width="2" stroke-linecap="round" stroke-linejoin="round"/>
<path d="M33 33L19 19" stroke="white" stroke-width="2" stroke-linecap="round" stroke-linejoin="round"/>
<defs>
<filter id="filter0_d_17_98" x="0.25" y="0.25" width="51.5" height="51.5" filterUnits="userSpaceOnUse" color-interpolation-filters="sRGB">
<feFlood flood-opacity="0" result="BackgroundImageFix"/>
<feColorMatrix in="SourceAlpha" type="matrix" values="0 0 0 0 0 0 0 0 0 0 0 0 0 0 0 0 0 0 127 0" result="hardAlpha"/>
<feOffset/>
<feGaussianBlur stdDeviation="5"/>
<feComposite in2="hardAlpha" operator="out"/>
<feColorMatrix type="matrix" values="0 0 0 0 1 0 0 0 0 0 0 0 0 0 0.116788 0 0 0 0.32 0"/>
<feBlend mode="normal" in2="BackgroundImageFix" result="effect1_dropShadow_17_98"/>
<feBlend mode="normal" in="SourceGraphic" in2="effect1_dropShadow_17_98" result="shape"/>
</filter>
</defs>
</svg>
