<svg width="165" height="777" viewBox="0 0 165 777" fill="none" xmlns="http://www.w3.org/2000/svg">
<g filter="url(#filter0_d_2019_451)">
<g clip-path="url(#clip0_2019_451)">
<rect width="16" height="16" rx="8" transform="matrix(-1 0 0 1 82.9109 4)" fill="#FF79C6" fill-opacity="0.01"/>
</g>
<rect x="-0.5" y="0.5" width="15" height="15" rx="7.5" transform="matrix(-1 0 0 1 81.9109 4)" stroke="#FF79C6"/>
</g>
<circle cx="74.9109" cy="12" r="4" fill="#FF79C6"/>
<g filter="url(#filter1_d_2019_451)">
<g clip-path="url(#clip1_2019_451)">
<rect width="16" height="16" rx="8" transform="matrix(-1 0 0 1 82.9109 255)" fill="#FF79C6" fill-opacity="0.01"/>
</g>
<rect x="-0.5" y="0.5" width="15" height="15" rx="7.5" transform="matrix(-1 0 0 1 81.9109 255)" stroke="#FF79C6"/>
</g>
<circle cx="74.9109" cy="263" r="4" fill="#FF79C6"/>
<g filter="url(#filter2_d_2019_451)">
<g clip-path="url(#clip2_2019_451)">
<rect width="16" height="16" rx="8" transform="matrix(-1 0 0 1 132.911 130)" fill="#FF79C6" fill-opacity="0.01"/>
</g>
<rect x="-0.5" y="0.5" width="15" height="15" rx="7.5" transform="matrix(-1 0 0 1 131.911 130)" stroke="#FF79C6"/>
</g>
<circle cx="124.911" cy="138" r="4" fill="#FF79C6"/>
<path d="M74.9103 12.0015C69.4108 96 124.91 74.0005 124.91 138C124.91 204.001 64.9103 181 74.9103 264.002" stroke="#FF79C6" stroke-dasharray="10 10"/>
<g filter="url(#filter3_d_2019_451)">
<g clip-path="url(#clip3_2019_451)">
<rect width="16" height="16" rx="8" transform="matrix(-1 0 0 1 84.6038 506)" fill="#FF79C6" fill-opacity="0.01"/>
</g>
<rect x="-0.5" y="0.5" width="15" height="15" rx="7.5" transform="matrix(-1 0 0 1 83.6038 506)" stroke="#FF79C6"/>
</g>
<circle cx="76.6038" cy="514" r="4" fill="#FF79C6"/>
<g filter="url(#filter4_d_2019_451)">
<g clip-path="url(#clip4_2019_451)">
<rect width="16" height="16" rx="8" transform="matrix(-1 0 0 1 134.604 381)" fill="#FF79C6" fill-opacity="0.01"/>
</g>
<rect x="-0.5" y="0.5" width="15" height="15" rx="7.5" transform="matrix(-1 0 0 1 133.604 381)" stroke="#FF79C6"/>
</g>
<circle cx="126.604" cy="389" r="4" fill="#FF79C6"/>
<path d="M76.6032 263.002C71.1037 347 126.603 325 126.603 389C126.603 455.001 66.6032 432 76.6032 515.002" stroke="#FF79C6" stroke-dasharray="10 10"/>
<g filter="url(#filter5_d_2019_451)">
<g clip-path="url(#clip5_2019_451)">
<rect width="16" height="16" rx="8" transform="matrix(-1 0 0 1 86.2966 757)" fill="#FF79C6" fill-opacity="0.01"/>
</g>
<rect x="-0.5" y="0.5" width="15" height="15" rx="7.5" transform="matrix(-1 0 0 1 85.2966 757)" stroke="#FF79C6"/>
</g>
<circle cx="78.2966" cy="765" r="4" fill="#FF79C6"/>
<g filter="url(#filter6_d_2019_451)">
<g clip-path="url(#clip6_2019_451)">
<rect width="16" height="16" rx="8" transform="matrix(-1 0 0 1 136.297 632)" fill="#FF79C6" fill-opacity="0.01"/>
</g>
<rect x="-0.5" y="0.5" width="15" height="15" rx="7.5" transform="matrix(-1 0 0 1 135.297 632)" stroke="#FF79C6"/>
</g>
<circle cx="128.297" cy="640" r="4" fill="#FF79C6"/>
<path d="M78.296 514.002C72.7966 598 128.296 576 128.296 640C128.296 706.001 68.296 683 78.296 766.002" stroke="#FF79C6" stroke-dasharray="10 10"/>
<defs>
<filter id="filter0_d_2019_451" x="62.9109" y="0" width="24" height="24" filterUnits="userSpaceOnUse" color-interpolation-filters="sRGB">
<feFlood flood-opacity="0" result="BackgroundImageFix"/>
<feColorMatrix in="SourceAlpha" type="matrix" values="0 0 0 0 0 0 0 0 0 0 0 0 0 0 0 0 0 0 127 0" result="hardAlpha"/>
<feMorphology radius="4" operator="dilate" in="SourceAlpha" result="effect1_dropShadow_2019_451"/>
<feOffset/>
<feColorMatrix type="matrix" values="0 0 0 0 1 0 0 0 0 0.47451 0 0 0 0 0.776471 0 0 0 0.32 0"/>
<feBlend mode="normal" in2="BackgroundImageFix" result="effect1_dropShadow_2019_451"/>
<feBlend mode="normal" in="SourceGraphic" in2="effect1_dropShadow_2019_451" result="shape"/>
</filter>
<filter id="filter1_d_2019_451" x="62.9109" y="251" width="24" height="24" filterUnits="userSpaceOnUse" color-interpolation-filters="sRGB">
<feFlood flood-opacity="0" result="BackgroundImageFix"/>
<feColorMatrix in="SourceAlpha" type="matrix" values="0 0 0 0 0 0 0 0 0 0 0 0 0 0 0 0 0 0 127 0" result="hardAlpha"/>
<feMorphology radius="4" operator="dilate" in="SourceAlpha" result="effect1_dropShadow_2019_451"/>
<feOffset/>
<feColorMatrix type="matrix" values="0 0 0 0 1 0 0 0 0 0.47451 0 0 0 0 0.776471 0 0 0 0.32 0"/>
<feBlend mode="normal" in2="BackgroundImageFix" result="effect1_dropShadow_2019_451"/>
<feBlend mode="normal" in="SourceGraphic" in2="effect1_dropShadow_2019_451" result="shape"/>
</filter>
<filter id="filter2_d_2019_451" x="112.911" y="126" width="24" height="24" filterUnits="userSpaceOnUse" color-interpolation-filters="sRGB">
<feFlood flood-opacity="0" result="BackgroundImageFix"/>
<feColorMatrix in="SourceAlpha" type="matrix" values="0 0 0 0 0 0 0 0 0 0 0 0 0 0 0 0 0 0 127 0" result="hardAlpha"/>
<feMorphology radius="4" operator="dilate" in="SourceAlpha" result="effect1_dropShadow_2019_451"/>
<feOffset/>
<feColorMatrix type="matrix" values="0 0 0 0 1 0 0 0 0 0.47451 0 0 0 0 0.776471 0 0 0 0.32 0"/>
<feBlend mode="normal" in2="BackgroundImageFix" result="effect1_dropShadow_2019_451"/>
<feBlend mode="normal" in="SourceGraphic" in2="effect1_dropShadow_2019_451" result="shape"/>
</filter>
<filter id="filter3_d_2019_451" x="64.6038" y="502" width="24" height="24" filterUnits="userSpaceOnUse" color-interpolation-filters="sRGB">
<feFlood flood-opacity="0" result="BackgroundImageFix"/>
<feColorMatrix in="SourceAlpha" type="matrix" values="0 0 0 0 0 0 0 0 0 0 0 0 0 0 0 0 0 0 127 0" result="hardAlpha"/>
<feMorphology radius="4" operator="dilate" in="SourceAlpha" result="effect1_dropShadow_2019_451"/>
<feOffset/>
<feColorMatrix type="matrix" values="0 0 0 0 1 0 0 0 0 0.47451 0 0 0 0 0.776471 0 0 0 0.32 0"/>
<feBlend mode="normal" in2="BackgroundImageFix" result="effect1_dropShadow_2019_451"/>
<feBlend mode="normal" in="SourceGraphic" in2="effect1_dropShadow_2019_451" result="shape"/>
</filter>
<filter id="filter4_d_2019_451" x="114.604" y="377" width="24" height="24" filterUnits="userSpaceOnUse" color-interpolation-filters="sRGB">
<feFlood flood-opacity="0" result="BackgroundImageFix"/>
<feColorMatrix in="SourceAlpha" type="matrix" values="0 0 0 0 0 0 0 0 0 0 0 0 0 0 0 0 0 0 127 0" result="hardAlpha"/>
<feMorphology radius="4" operator="dilate" in="SourceAlpha" result="effect1_dropShadow_2019_451"/>
<feOffset/>
<feColorMatrix type="matrix" values="0 0 0 0 1 0 0 0 0 0.47451 0 0 0 0 0.776471 0 0 0 0.32 0"/>
<feBlend mode="normal" in2="BackgroundImageFix" result="effect1_dropShadow_2019_451"/>
<feBlend mode="normal" in="SourceGraphic" in2="effect1_dropShadow_2019_451" result="shape"/>
</filter>
<filter id="filter5_d_2019_451" x="66.2966" y="753" width="24" height="24" filterUnits="userSpaceOnUse" color-interpolation-filters="sRGB">
<feFlood flood-opacity="0" result="BackgroundImageFix"/>
<feColorMatrix in="SourceAlpha" type="matrix" values="0 0 0 0 0 0 0 0 0 0 0 0 0 0 0 0 0 0 127 0" result="hardAlpha"/>
<feMorphology radius="4" operator="dilate" in="SourceAlpha" result="effect1_dropShadow_2019_451"/>
<feOffset/>
<feColorMatrix type="matrix" values="0 0 0 0 1 0 0 0 0 0.47451 0 0 0 0 0.776471 0 0 0 0.32 0"/>
<feBlend mode="normal" in2="BackgroundImageFix" result="effect1_dropShadow_2019_451"/>
<feBlend mode="normal" in="SourceGraphic" in2="effect1_dropShadow_2019_451" result="shape"/>
</filter>
<filter id="filter6_d_2019_451" x="116.297" y="628" width="24" height="24" filterUnits="userSpaceOnUse" color-interpolation-filters="sRGB">
<feFlood flood-opacity="0" result="BackgroundImageFix"/>
<feColorMatrix in="SourceAlpha" type="matrix" values="0 0 0 0 0 0 0 0 0 0 0 0 0 0 0 0 0 0 127 0" result="hardAlpha"/>
<feMorphology radius="4" operator="dilate" in="SourceAlpha" result="effect1_dropShadow_2019_451"/>
<feOffset/>
<feColorMatrix type="matrix" values="0 0 0 0 1 0 0 0 0 0.47451 0 0 0 0 0.776471 0 0 0 0.32 0"/>
<feBlend mode="normal" in2="BackgroundImageFix" result="effect1_dropShadow_2019_451"/>
<feBlend mode="normal" in="SourceGraphic" in2="effect1_dropShadow_2019_451" result="shape"/>
</filter>
<clipPath id="clip0_2019_451">
<rect width="16" height="16" rx="8" transform="matrix(-1 0 0 1 82.9109 4)" fill="white"/>
</clipPath>
<clipPath id="clip1_2019_451">
<rect width="16" height="16" rx="8" transform="matrix(-1 0 0 1 82.9109 255)" fill="white"/>
</clipPath>
<clipPath id="clip2_2019_451">
<rect width="16" height="16" rx="8" transform="matrix(-1 0 0 1 132.911 130)" fill="white"/>
</clipPath>
<clipPath id="clip3_2019_451">
<rect width="16" height="16" rx="8" transform="matrix(-1 0 0 1 84.6038 506)" fill="white"/>
</clipPath>
<clipPath id="clip4_2019_451">
<rect width="16" height="16" rx="8" transform="matrix(-1 0 0 1 134.604 381)" fill="white"/>
</clipPath>
<clipPath id="clip5_2019_451">
<rect width="16" height="16" rx="8" transform="matrix(-1 0 0 1 86.2966 757)" fill="white"/>
</clipPath>
<clipPath id="clip6_2019_451">
<rect width="16" height="16" rx="8" transform="matrix(-1 0 0 1 136.297 632)" fill="white"/>
</clipPath>
</defs>
</svg>
